HIERARCHY
ROOT Hips
{
	OFFSET -3.958830 18.904000 13.208200
	CHANNELS 6 Xposition Yposition Zposition Zrotation Yrotation Xrotation 
	JOINT LHipJoint
	{
		OFFSET 0.000000 0.000000 0.000000
		CHANNELS 3 Zrotation Yrotation Xrotation
		JOINT LeftUpLeg
		{
			OFFSET 1.800000 -1.400000 0.085000
			CHANNELS 3 Zrotation Yrotation Xrotation
			JOINT LeftLeg
			{
				OFFSET 2.215000 -6.000000 0.000000
				CHANNELS 3 Zrotation Yrotation Xrotation
				JOINT LeftFoot
				{
					OFFSET 2.500000 -6.900000 0.000000
					CHANNELS 3 Zrotation Yrotation Xrotation
					JOINT LeftToeBase
					{
						OFFSET 0.200000 -0.500000 1.950000
						CHANNELS 3 Zrotation Yrotation Xrotation
						End Site
						{
							OFFSET 0.000000 0.000000 0.000000
						}
					}
				}
			}
		}
	}
	JOINT RHipJoint
	{
		OFFSET 0.000000 0.000000 0.000000
		CHANNELS 3 Zrotation Yrotation Xrotation
		JOINT RightUpLeg
		{
			OFFSET -1.800000 -1.400000 0.085000
			CHANNELS 3 Zrotation Yrotation Xrotation
			JOINT RightLeg
			{
				OFFSET -2.215000 -6.000000 0.000000
				CHANNELS 3 Zrotation Yrotation Xrotation
				JOINT RightFoot
				{
					OFFSET -2.500000 -6.900000 0.000000
					CHANNELS 3 Zrotation Yrotation Xrotation
					JOINT RightToeBase
					{
						OFFSET -0.200000 -0.500000 1.950000
						CHANNELS 3 Zrotation Yrotation Xrotation
						End Site
						{
							OFFSET 0.000000 0.000000 0.000000
						}
					}
				}
			}
		}
	}
	JOINT LowerBack
	{
		OFFSET 0.000000 0.000000 0.000000
		CHANNELS 3 Zrotation Yrotation Xrotation
		JOINT Spine
		{
			OFFSET -0.087000 1.940000 -0.288900
			CHANNELS 3 Zrotation Yrotation Xrotation
			JOINT Spine1
			{
				OFFSET 0.000000 1.950000 0.060000
				CHANNELS 3 Zrotation Yrotation Xrotation
				JOINT Neck
				{
					OFFSET 0.000000 0.000000 0.000000
					CHANNELS 3 Zrotation Yrotation Xrotation
					JOINT Neck1
					{
						OFFSET 0.000000 1.600000 0.340000
						CHANNELS 3 Zrotation Yrotation Xrotation
						JOINT Head
						{
							OFFSET 0.000000 1.667000 -0.240000
							CHANNELS 3 Zrotation Yrotation Xrotation
							End Site
							{
								OFFSET 0.000000 0.000000 0.000000
							}
						}
					}
				}
				JOINT LeftShoulder
				{
					OFFSET 0.000000 0.000000 0.000000
					CHANNELS 3 Zrotation Yrotation Xrotation
					JOINT LeftArm
					{
						OFFSET 2.700000 1.550000 -0.730000
						CHANNELS 3 Zrotation Yrotation Xrotation
						JOINT LeftForeArm
						{
							OFFSET 5.450000 0.000000 0.000000
							CHANNELS 3 Zrotation Yrotation Xrotation
							JOINT LeftHand
							{
								OFFSET 3.450000 0.000000 0.000000
								CHANNELS 3 Zrotation Yrotation Xrotation
								JOINT LeftHandIndex1
								{
									OFFSET 0.750000 0.000000 0.000000
									CHANNELS 3 Zrotation Yrotation Xrotation
									End Site
									{
										OFFSET 0.000000 0.000000 0.000000
									}
								}
							}
						}
					}
				}
				JOINT RightShoulder
				{
					OFFSET 0.000000 0.000000 0.000000
					CHANNELS 3 Zrotation Yrotation Xrotation
					JOINT RightArm
					{
						OFFSET -2.700000 1.550000 -0.730000
						CHANNELS 3 Zrotation Yrotation Xrotation
						JOINT RightForeArm
						{
							OFFSET -5.450000 0.000000 0.000000
							CHANNELS 3 Zrotation Yrotation Xrotation
							JOINT RightHand
							{
								OFFSET -3.450000 0.000000 0.000000
								CHANNELS 3 Zrotation Yrotation Xrotation
								JOINT RightHandIndex1
								{
									OFFSET -0.750000 0.000000 0.000000
									CHANNELS 3 Zrotation Yrotation Xrotation
									End Site
									{
										OFFSET 0.000000 0.000000 0.000000
									}
								}
							}
						}
					}
				}
			}
		}
	}
}
MOTION
Frames: 6
Frame Time: 0.016667
2.934340 16.681480 -1.559530 2.901224 -23.950275 -5.643891 -15.567168 13.644213 3.804430 4.617433 -2.780698 -5.009597 -27.069769 16.420867 26.147998 0.879731 8.726020 1.528895 0.297250 0.289800 0.287750 18.020385 -9.409857 2.603985 2.671332 3.490937 -22.893191 3.842040 -5.308222 27.645679 -0.157845 -3.422530 3.099166 0.273050 0.021080 0.028260 -2.396536 -4.995729 -7.799570 2.696315 -5.322996 11.895009 -1.662367 -3.979504 9.691519 0.084976 -6.882035 -10.310268 -22.716054 18.194294 42.736287 -4.673180 14.448420 -4.407610 -31.355364 -16.789791 5.160065 -49.724499 -33.811362 4.809444 20.436872 -28.269388 -7.304642 -3.796691 2.901895 0.192020 0.108360 0.033680 0.025440 31.362717 18.832210 6.294600 42.202186 13.474243 -10.082127 -49.817999 26.694793 -13.823244 2.178745 -1.575052 -0.133410 0.153420 -0.041830 -0.192130 
2.940430 16.674680 -1.535120 3.322476 -24.106055 -5.866921 -15.589331 13.586970 3.851025 5.594912 -3.122314 -5.811598 -27.957726 17.355497 27.537218 0.946507 9.092238 1.400570 0.308390 0.307630 0.295010 18.008193 -9.404056 2.515743 2.065867 3.348418 -22.498258 3.796041 -5.314540 27.587216 -0.155485 -3.461617 3.079589 0.290720 0.024340 0.041200 -2.351802 -4.981315 -7.753547 2.124184 -5.258698 11.525993 -1.738611 -3.937525 10.388968 -0.212659 -6.874373 -10.046145 -22.262388 18.111937 42.027804 -5.227020 14.762230 -4.700190 -30.756585 -16.699261 5.119091 -49.237254 -34.627370 4.795126 23.750665 -29.722822 -8.532084 -3.819422 2.888851 0.172760 0.127180 0.027690 0.025870 31.269963 18.741238 6.061143 43.746882 15.030669 -10.063446 -53.619144 30.861142 -17.060069 2.093796 -1.534012 -0.127870 0.144420 -0.044750 -0.192970 
2.962650 16.678260 -1.496900 3.683478 -24.352624 -6.486081 -15.601376 13.504574 3.906015 7.568677 -3.537800 -6.506307 -28.909998 18.759520 29.626662 1.021823 9.653581 1.206865 0.343770 0.355700 0.323060 18.007711 -9.407142 2.395058 1.233913 3.109649 -21.606802 4.077471 -5.421767 27.251979 -0.165164 -3.516041 3.053552 0.336520 0.027760 0.053460 -2.344727 -4.930917 -7.690291 1.669671 -5.339976 11.467556 -2.147294 -4.009915 11.729375 -0.697629 -6.937199 -9.586874 -21.730623 17.985010 40.944753 -6.056230 15.004550 -6.009060 -29.726255 -16.546531 4.867070 -47.425310 -36.273674 4.603384 31.740754 -33.078145 -11.796727 -3.846741 2.807211 0.158720 0.148820 0.027850 0.030870 31.014622 18.525342 5.767490 44.718840 17.668165 -9.489594 -59.992245 38.673449 -23.542627 1.922284 -1.377728 -0.128590 0.157310 -0.054070 -0.199150 
2.996150 16.674080 -1.450630 4.079027 -24.918879 -7.044902 -15.617052 13.425654 4.006864 10.174892 -3.943883 -7.470480 -29.951266 20.678098 32.317437 1.136128 10.387586 0.970351 0.363480 0.391880 0.320250 18.005122 -9.390207 2.243731 0.264944 2.790572 -20.586869 4.061179 -5.373769 26.548463 -0.143941 -3.530709 3.048670 0.386420 0.066700 0.063970 -2.327104 -4.942773 -7.648373 1.464455 -5.413751 11.460704 -2.689548 -4.007568 13.180165 -1.087040 -7.335590 -9.318584 -21.826732 18.013109 38.446681 -6.478610 14.966230 -6.521520 -29.785108 -16.624547 4.711255 -46.209484 -38.859512 5.055566 44.679893 -34.437331 -16.886537 -3.918406 2.724523 0.115540 0.193510 -0.002490 0.044500 31.629209 18.720581 5.987281 43.057664 19.548165 -8.375704 -70.682571 48.666106 -34.631905 1.682552 -1.047174 -0.137310 0.175220 -0.053180 -0.191010 
3.031160 16.646090 -1.402470 4.519674 -25.829725 -7.476119 -15.648364 13.335251 4.115626 12.972886 -4.106353 -8.533460 -30.951011 22.452542 34.301751 1.213616 11.016975 0.765572 0.386240 0.435180 0.317400 17.993838 -9.346757 2.106709 -0.618185 2.545552 -19.748749 4.150855 -5.349672 25.850416 -0.118889 -3.561732 3.036488 0.446380 0.117470 0.083770 -2.272122 -4.963026 -7.619091 0.891142 -5.310538 11.543426 -3.514870 -3.783443 14.661534 -1.243568 -7.519290 -8.945264 -20.753363 17.778982 34.989167 -6.845790 15.194950 -7.301350 -28.629331 -16.746316 4.193786 -43.800100 -41.134338 6.003739 59.935191 -36.333426 -23.951436 -3.994058 2.635326 0.061330 0.255780 -0.041920 0.056910 30.536025 18.842895 6.209756 39.336832 21.118555 -5.361305 -85.815651 55.225061 -49.881599 1.483783 -0.582297 -0.146820 0.190890 -0.047980 -0.184650 
3.064690 16.624650 -1.354400 4.824440 -26.704283 -7.782159 -15.651075 13.242208 4.177717 15.783045 -3.932229 -9.073136 -31.580241 23.555949 34.980134 1.223888 11.388830 0.650256 0.400570 0.465700 0.306040 18.009672 -9.321149 2.006388 -1.579178 2.377592 -19.234529 4.753724 -5.536433 25.389636 -0.099823 -3.650665 3.006974 0.504100 0.183330 0.094450 -2.314771 -4.909201 -7.564901 0.767747 -5.392772 11.647645 -4.885180 -3.724246 15.732708 -1.342709 -7.601856 -8.624194 -19.616573 17.804978 31.822122 -6.719570 15.466400 -7.602140 -25.993808 -16.675789 3.200429 -39.621287 -42.081719 6.589965 75.068795 -36.097417 -31.070531 -4.067298 2.593738 0.013150 0.319850 -0.088630 0.075050 27.863022 18.385843 6.545610 34.841424 22.264315 -0.532308 -102.754987 57.319117 -69.874777 1.610599 -0.438309 -0.171150 0.220720 -0.040220 -0.177890 
